Coordinates
version=1
nRows=14
nColumns=36
inDegrees=yes

Units are S.I. units (second, meters, Newtons, ...)
If the header above contains a line with 'inDegrees', this indicates whether rotational values are in degrees (yes) or radians (no).

endheader
time	pelvis_tilt	pelvis_list	pelvis_rotation	pelvis_tx	pelvis_ty	pelvis_tz	hip_flexion_r	hip_adduction_r	hip_rotation_r	knee_angle_r	knee_angle_r_beta	ankle_angle_r	subtalar_angle_r	mtp_angle_r	hip_flexion_l	hip_adduction_l	hip_rotation_l	knee_angle_l	knee_angle_l_beta	ankle_angle_l	subtalar_angle_l	mtp_angle_l	lumbar_extension	lumbar_bending	lumbar_rotation	arm_flex_r	arm_add_r	arm_rot_r	elbow_flex_r	pro_sup_r	arm_flex_l	arm_add_l	arm_rot_l	elbow_flex_l	pro_sup_l
      0.00000000	     -4.26319199	     -1.10798442	     12.20573193	     -0.96110911	      1.26580015	     -0.02281919	      4.83588203	      4.59022612	      1.84720492	      7.63646137	      0.13328139	      2.37173602	    -22.80624186	     -6.82851045	     11.24950593	     -2.13529840	     11.09488452	     16.52560703	      0.28842625	     12.51014091	     -5.77863073	     -6.82851045	     -7.21528944	      5.76534040	      4.80971084	     13.65505201	    -12.23417055	    -12.74402091	     25.63551224	     87.56759386	     24.15684115	     -7.81631179	     -0.80764068	    145.37691656	     88.56446908
      0.00416670	     -6.15384112	     -2.02931749	     12.81667540	     -0.96063343	      1.26239701	     -0.02399101	      7.39358911	      5.18428815	      1.82868926	      8.12476192	      0.14180385	      3.90764057	    -23.15745195	     -6.98578466	     13.79500451	     -1.81759342	     15.32640029	     16.89855101	      0.29493535	     11.64612718	     -6.47217681	     -6.98578466	     -3.97147230	      6.63789975	      4.21149243	     12.22382265	    -11.54482466	    -20.98762168	     30.38661708	     89.22782910	     24.02460909	     -7.12780268	     -2.21786565	    147.18715457	     88.09368473
      0.00833330	     -6.81149338	     -2.00776924	     13.15227204	     -0.95988694	      1.26071367	     -0.02378534	      7.83148886	      5.13920032	      0.92134354	      7.82412037	      0.13655666	      3.77841619	    -24.23762754	     -7.15332032	     14.59096896	     -1.58995334	     16.70024575	     16.93999481	      0.29565868	     11.79328919	     -6.01370879	     -7.15332032	     -2.67670302	      6.30910104	      4.77082695	     11.03885197	    -11.03113954	    -26.25290110	     31.26414960	    103.23168829	     24.79386101	     -7.12885511	     -2.25015513	    147.52265754	     88.58991402
      0.01250000	     -5.74582332	     -1.68171821	     13.55385338	     -0.95984396	      1.27188631	     -0.02395080	      6.38784286	      5.02627294	      0.28032578	      7.33492674	      0.12801862	      3.47830976	    -24.21183901	     -7.16523882	     12.95969386	     -1.41598794	     18.25664045	     16.09697325	      0.28094518	     11.19035473	     -6.96173219	     -7.16523882	     -4.18129399	      6.04430552	      4.17404851	     11.22103751	    -10.49671180	    -26.01440300	     30.69114517	    103.46642404	     25.64140360	     -7.12433892	     -0.61240205	    147.23097844	     88.51633754
      0.01666670	     -4.88379691	     -1.44419077	     13.81269883	     -0.95345979	      1.26742043	     -0.01932464	      4.74510158	      5.24065544	     -0.13682387	      6.39101663	      0.11154428	      3.32827039	    -24.09517549	     -7.20527893	     11.52926050	     -1.61611075	     18.97893626	     15.55946747	      0.27156394	     11.32855435	     -7.05180497	     -7.20527893	     -5.24162607	      5.63907310	      4.56895874	     10.93700629	     -9.67098115	    -25.39137760	     30.06235031	    102.75883079	     27.17979994	     -6.99841147	      0.65161344	    146.93084793	     87.53745859
      0.02083330	     -4.38537398	     -1.27051950	     14.02844742	     -0.95378165	      1.26751482	     -0.01913457	      3.77369106	      5.37937799	     -0.62480896	      5.90274476	      0.10302233	      3.16027767	    -24.20929731	     -7.29743882	     10.76413811	     -1.68264869	     19.58863596	     15.42400915	      0.26919974	     11.69730436	     -7.18096588	     -7.29743882	     -5.73052179	      5.32425212	      4.64667878	     10.83918754	     -8.98994535	    -26.21509110	     29.64897651	    105.87652015	     28.07318328	     -7.07924337	      1.58315450	    146.58493792	     87.14808863
      0.02500000	     -3.94832894	     -1.09525354	     14.21296297	     -0.95405787	      1.26746942	     -0.01935821	      2.97555432	      5.41687935	     -0.87097445	      5.44311754	      0.09500032	      3.18931878	    -24.21921103	     -7.32682938	     10.09329172	     -1.70095794	     20.15653331	     15.28170825	      0.26671612	     11.79195909	     -7.69802198	     -7.32682938	     -6.12101619	      5.11918617	      4.82721453	     10.50529735	     -8.64791797	    -26.90427920	     29.39394118	    103.60997032	     29.38382274	     -7.09725889	      2.05776934	    146.43335300	     85.63616994
      0.02916670	     -3.62960363	     -0.96225293	     14.36168084	     -0.95402140	      1.27117514	     -0.01940968	      2.52295697	      5.46421740	     -0.80716242	      5.24492620	      0.09154123	      3.06125210	    -24.40866670	     -7.35644819	      9.60341024	     -1.66143653	     20.80843992	     15.24560652	      0.26608603	     11.85925335	     -8.05483493	     -7.35644819	     -6.43322155	      5.00505562	      4.88823515	     10.33477333	     -8.15480393	    -28.12811938	     29.40366110	    106.66452530	     29.53301043	     -7.35010139	      2.38211695	    146.23803683	     85.70885906
      0.03333330	     -3.21692979	     -0.87048196	     14.25302994	     -0.95412755	      1.27112032	     -0.01935656	      2.06245161	      5.56037191	     -0.71793057	      5.23083111	      0.09129523	      3.07569341	    -24.32663914	     -7.37894936	      8.98140250	     -1.68592132	     21.24427742	     15.12228592	      0.26393368	     11.85174248	     -8.42656826	     -7.37894936	     -6.90993253	      4.98912456	      5.12837472	     10.55411787	     -8.09279334	    -27.85782853	     28.97400364	    104.61977238	     29.81101128	     -7.00116929	      2.54980699	    146.19673766	     84.30970178
      0.03750000	     -3.20275955	     -0.93985939	     14.09520038	     -0.95424699	      1.26698772	     -0.01932225	      2.21663329	      5.69348904	     -0.19272436	      5.38168834	      0.09392818	      2.85721534	    -24.96631817	     -7.37910991	      8.96528931	     -1.75974073	     21.42490536	     15.19108699	      0.26513448	     12.16386101	     -8.72962965	     -7.37910991	     -6.74998949	      5.07748704	      5.23054497	     10.44529333	     -7.92118149	    -27.41243187	     28.76010839	    104.80047337	     30.78088280	     -6.95986983	      2.62895341	    146.14107117	     83.59217890
      0.04166670	     -3.12019965	     -0.93924335	     13.97690386	     -0.95420370	      1.27087503	     -0.01923805	      2.08544049	      5.72860147	      0.04436201	      5.19868758	      0.09073422	      2.85705525	    -24.79989779	     -7.41078609	      8.81197780	     -1.76716099	     21.69710762	     15.17287034	      0.26481654	     12.17797712	     -8.95313578	     -7.41078609	     -6.78072702	      5.08499126	      5.13200202	     10.52539008	     -7.74180946	    -26.49593094	     28.11676669	    105.82449834	     31.23906407	     -6.93906004	      2.58089793	    146.31545861	     82.22803791
      0.04583330	     -2.82510472	     -0.94520349	     13.93514988	     -0.94762031	      1.27038091	     -0.01471250	      1.47567238	      5.97443466	      0.54652783	      4.68986595	      0.08185360	      2.98672512	    -24.41741382	     -7.41213897	      8.30722448	     -1.99890810	     21.82073440	     15.05599838	      0.26277674	     12.33358370	     -9.08117506	     -7.41213897	     -6.72251737	      4.93409906	      5.55961406	     10.01791986	     -7.11221616	    -26.32178990	     28.06490139	    105.97288673	     30.76440515	     -7.35624884	      2.42956415	    146.55875438	     82.16278706
      0.05000000	     -2.37989613	     -0.87285076	     13.91434678	     -0.94759015	      1.27057856	     -0.01478603	      0.68885330	      6.12609690	      0.51034189	      4.31749388	      0.07535448	      3.40359849	    -23.63026869	     -7.42657718	      7.62411715	     -2.20349392	     21.91955257	     14.82942809	      0.25882235	     12.41904157	     -9.12542451	     -7.42657718	     -6.88458708	      4.73492386	      5.86239534	      9.44794081	     -6.62723450	    -25.89143119	     27.64445227	    103.53966209	     31.12628890	     -7.72081026	      3.00144840	    146.48004618	     80.69603686
      0.05416670	     -2.14243652	     -0.81419510	     13.88251368	     -0.94785455	      1.27065974	     -0.01465148	      0.16219440	      6.22942735	      0.80691405	      3.87698883	      0.06766622	      3.30463619	    -23.50877485	     -7.43438830	      7.22459393	     -2.35717791	     22.19807873	     14.58937241	      0.25463258	     12.06023137	     -9.68681480	     -7.43438830	     -6.83752359	      4.63230917	      6.15504838	      9.24250508	     -6.42299751	    -25.02110007	     27.24595366	    103.53109509	     31.87183524	     -8.13533123	      2.72329786	    146.42931905	     79.98302728
